HIERARCHY
ROOT RootJoint
{
    OFFSET   0.000000   0.000000   0.000000
    CHANNELS 6 Xposition Yposition Zposition Xrotation Yrotation Zrotation
    JOINT pelvis_lowerback
    {
        OFFSET   0.000000   0.093605   0.000000
        CHANNELS 3 Xrotation Yrotation Zrotation
        JOINT lowerback_torso
        {
            OFFSET   0.000000   0.100000   0.000000
            CHANNELS 3 Xrotation Yrotation Zrotation
            JOINT torso_head
            {
                OFFSET   0.000000   0.282350   0.000000
                CHANNELS 3 Xrotation Yrotation Zrotation
                End Site
                {
                    OFFSET   0.000000   0.192650   0.000000
                }
            }
            JOINT rTorso_Clavicle
            {
                OFFSET  -0.001000   0.157500   0.000000
                CHANNELS 3 Xrotation Yrotation Zrotation
                JOINT rShoulder
                {
                    OFFSET  -0.117647   0.000000   0.000000
                    CHANNELS 3 Xrotation Yrotation Zrotation
                    JOINT rElbow
                    {
                        OFFSET  -0.245000   0.000000   0.000000
                        CHANNELS 3 Xrotation Yrotation Zrotation
                        JOINT rWrist
                        {
                            OFFSET  -0.240000   0.000000   0.000000
                            CHANNELS 3 Xrotation Yrotation Zrotation
                            End Site
                            {
                                OFFSET  -0.116353  -0.002500   0.000000
                            }
                        }
                    }
                }
            }
            JOINT lTorso_Clavicle
            {
                OFFSET   0.001000   0.157500   0.000000
                CHANNELS 3 Xrotation Yrotation Zrotation
                JOINT lShoulder
                {
                    OFFSET   0.117647   0.000000   0.000000
                    CHANNELS 3 Xrotation Yrotation Zrotation
                    JOINT lElbow
                    {
                        OFFSET   0.245000   0.000000   0.000000
                        CHANNELS 3 Xrotation Yrotation Zrotation
                        JOINT lWrist
                        {
                            OFFSET   0.240000   0.000000   0.000000
                            CHANNELS 3 Xrotation Yrotation Zrotation
                            End Site
                            {
                                OFFSET   0.116353  -0.002500   0.000000
                            }
                        }
                    }
                }
            }
        }
    }
    JOINT rHip
    {
        OFFSET  -0.100000  -0.051395   0.000000
        CHANNELS 3 Xrotation Yrotation Zrotation
        JOINT rKnee
        {
            OFFSET   0.000000  -0.410000   0.000000
            CHANNELS 3 Xrotation Yrotation Zrotation
            JOINT rAnkle
            {
                OFFSET   0.000000  -0.390000   0.000000
                CHANNELS 3 Xrotation Yrotation Zrotation
                JOINT rToeJoint
                {
                    OFFSET   0.000000  -0.050000   0.130000
                    CHANNELS 3 Xrotation Yrotation Zrotation
                    End Site
                    {
                        OFFSET  -0.010000   0.002000   0.060000
                    }
                }
            }
        }
    }
    JOINT lHip
    {
        OFFSET   0.100000  -0.051395   0.000000
        CHANNELS 3 Xrotation Yrotation Zrotation
        JOINT lKnee
        {
            OFFSET   0.000000  -0.410000   0.000000
            CHANNELS 3 Xrotation Yrotation Zrotation
            JOINT lAnkle
            {
                OFFSET   0.000000  -0.390000   0.000000
                CHANNELS 3 Xrotation Yrotation Zrotation
                JOINT lToeJoint
                {
                    OFFSET   0.000000  -0.050000   0.130000
                    CHANNELS 3 Xrotation Yrotation Zrotation
                    End Site
                    {
                        OFFSET   0.010000   0.002000   0.060000
                    }
                }
            }
        }
    }
}
MOTION
Frames: 15
Frame Time:   0.008333
 -2.376719   0.925631   3.975860   0.000000   0.000000   0.000000   0.000000   0.000000   0.000000   0.000000   0.000000   0.000000   0.000000   0.000000   0.000000   0.000000   0.000000   0.000000   0.000000   0.000000   0.000000   0.000000   0.000000   0.000000   0.000000   0.000000   0.000000   0.000000   0.000000   0.000000   0.000000   0.000000   0.000000   0.000000   0.000000   0.000000   0.000000   0.000000   0.000000   0.000000   0.000000   0.000000   0.000000   0.000000   0.000000   0.000000   0.000000   0.000000   0.000000   0.000000   0.000000   0.000000   0.000000   0.000000   0.000000   0.000000   0.000000   0.000000   0.000000   0.000000   0.000000   0.000000   0.000000
 -2.376667   0.926243   3.976005  -0.781308   0.097519  -0.102985   0.814072  -0.014066   0.121779   0.269660  -0.148847   0.037626  -0.175490   0.212992   0.066754   0.128587  -0.257816   0.255543   0.671429   0.268574   2.110510   0.019610   0.923405  -0.009024   0.310134  -0.455540  -2.678967   0.126128   0.089812  -0.553909   0.676898  -0.057947  -2.017608   0.017271  -0.783653   0.007680   0.303679   0.389973   2.913317   0.664157   0.296225  -0.027599   0.513622   0.000600   0.001756  -0.661132  -0.126074  -0.075716  -0.157996  -0.000283  -0.000368   0.575010   0.177164   0.262152   1.132580  -0.001532   0.002723  -1.196392   0.333436   0.126762   0.360435  -0.000895   0.001909
 -2.376626   0.927287   3.976146  -1.613867   0.224124  -0.208415   1.608808  -0.053562   0.248235   0.626040  -0.323306   0.080290  -0.310010   0.418413   0.148418   0.257697  -0.447189   1.226151   1.317930   0.621008   4.791205   0.045485   1.830706  -0.016030   0.653117  -0.602843  -4.624141   0.254488   0.087835  -1.862829   1.334374  -0.220374  -4.647634   0.040321  -1.558356   0.013864   0.637658   0.521223   5.065884   1.310805   0.585746  -0.163763   1.085219   0.001759   0.003435  -1.280342  -0.241852  -0.147876  -0.346182  -0.000742  -0.000786   1.224232   0.370765   0.662050   2.380637  -0.004214   0.005763  -2.311467   0.651709   0.254309   0.654917  -0.001770   0.003168
 -2.376593   0.928340   3.976290  -2.407700   0.359601  -0.300066   2.352682  -0.111046   0.362213   0.973218  -0.509127   0.113997  -0.431356   0.610083   0.230906   0.378866  -0.574968   2.638844   1.931640   1.038420   7.845480   0.070991   2.692367  -0.020703   0.992006  -0.614265  -5.744079   0.370705   0.013659  -3.616981   1.965050  -0.470446  -7.672203   0.063373  -2.301543   0.018324   0.968078   0.503285   6.345259   1.877820   0.850943  -0.404349   1.622978   0.003089   0.004540  -1.858616  -0.350151  -0.217005  -0.525910  -0.001228  -0.001085   1.889815   0.565181   1.157672   3.589383  -0.007246   0.008339  -3.350742   0.948862   0.380419   0.924948  -0.002616   0.004021
 -2.376563   0.929093   3.976462  -3.148058   0.494755  -0.377484   3.045872  -0.182326   0.461301   1.294359  -0.701518   0.136819  -0.546755   0.788712   0.310120   0.491548  -0.659918   4.302267   2.511166   1.510955  11.149568   0.093077   3.505240  -0.023503   1.322455  -0.553566  -6.253901   0.470861  -0.108819  -5.613515   2.567142  -0.795610 -10.957959   0.083653  -3.009052   0.021421   1.293204   0.389637   6.980765   2.364624   1.092605  -0.731569   2.112284   0.004349   0.005114  -2.399635  -0.451695  -0.283179  -0.698134  -0.001698  -0.001280   2.556572   0.758142   1.726111   4.735501  -0.010195   0.010363  -4.321338   1.225624   0.504333   1.167489  -0.003337   0.004514
 -2.376572   0.929304   3.976681  -3.834951   0.623621  -0.440156   3.691447  -0.264620   0.539264   1.588775  -0.898251   0.135500  -0.656778   0.955195   0.388996   0.595741  -0.717867   6.095183   3.055005   2.029399  14.623737   0.110463   4.268830  -0.024860   1.641820  -0.453249  -6.345827   0.553857  -0.261762  -7.767960   3.111290  -1.167084 -14.272988   0.099557  -3.680108   0.023306   1.611623   0.207010   7.108192   2.780196   1.313127  -1.126452   2.554996   0.005405   0.005284  -2.905932  -0.546889  -0.346432  -0.862664  -0.002117  -0.001387   3.218765   0.948798   2.350708   5.818440  -0.012870   0.011872  -5.228097   1.483092   0.625419   1.384866  -0.003905   0.004730
 -2.376643   0.928793   3.976959  -4.471549   0.742470  -0.490105   4.292348  -0.355415   0.592832   1.858471  -1.097251   0.108094  -0.760843   1.110298   0.464757   0.692283  -0.761824   7.932861   3.562037   2.584628  18.211471   0.122909   4.983535  -0.025124   1.947814  -0.335419  -6.166317   0.619834  -0.429426  -9.986341   3.593975  -1.565098 -17.513870   0.110681  -4.313811   0.024233   1.919830  -0.019777   6.894217   3.134027   1.514931  -1.570990   2.955752   0.006210   0.005171  -3.379598  -0.636008  -0.406732  -1.018496  -0.002461  -0.001423   3.872908   1.136592   3.018417   6.841330  -0.015167   0.012926  -6.075181   1.722473   0.743237   1.580342  -0.004322   0.004744
 -2.376813   0.926845   3.976591  -4.647362   0.768937  -0.622029   4.542293  -0.387426   0.739173   2.001940  -1.303458   0.055524  -0.929745   1.076785   0.449498   0.856676  -0.583180   9.149829   4.073776   3.071336  21.741817   0.131353   5.758797  -0.026543   2.162646  -0.276475  -4.949362   0.781451  -0.603295 -11.407545   3.839350  -1.864435 -20.768103   0.115600  -4.955569   0.024279   2.197666  -0.375985   5.642121   2.760240   1.434031  -1.908896   3.917848   0.009095   0.003124  -3.704089  -0.728283  -0.232945  -0.958744  -0.001803  -0.001221   4.072272   1.433986   3.752025   7.191647  -0.013763   0.011589  -6.511697   2.112865   0.782126   1.828970  -0.004760   0.005395
 -2.376998   0.923685   3.976035  -4.775140   0.835544  -0.760763   4.810708  -0.426400   0.886488   2.119609  -1.497105   0.021199  -1.101059   1.035014   0.423008   0.991996  -0.373285  10.123232   4.514774   3.575948  24.932498   0.132754   6.492977  -0.027283   2.373429  -0.175037  -3.769850   0.913955  -0.786952 -12.520202   4.048934  -2.161680 -23.669153   0.114475  -5.559121   0.023882   2.457686  -0.756846   4.481391   2.388172   1.339553  -2.221190   4.858406   0.011118   0.001624  -3.998944  -0.818583  -0.071415  -0.868199  -0.001198  -0.001086   4.151247   1.709416   4.469025   7.384800  -0.011858   0.009992  -6.923487   2.478645   0.822614   2.067274  -0.004975   0.005853
 -2.377164   0.919436   3.975419  -4.886052   0.926189  -0.896352   5.087250  -0.454069   1.032630   2.237722  -1.669605   0.003532  -1.257909   0.995280   0.394723   1.103071  -0.156208  10.919623   4.893330   4.079385  27.829506   0.129571   7.184488  -0.027433   2.578136  -0.047029  -2.787827   1.021833  -0.969382 -13.416080   4.227635  -2.450968 -26.274868   0.109669  -6.125385   0.023010   2.703640  -1.135916   3.562741   2.068592   1.252786  -2.521167   5.745490   0.012374   0.000653  -4.273117  -0.903610   0.078846  -0.780734  -0.000727  -0.000951   4.145317   1.963569   5.151143   7.517069  -0.010026   0.008491  -7.310526   2.819758   0.863466   2.282703  -0.004952   0.006044
 -2.377318   0.918918   3.975187  -5.177580   0.668328  -0.826716   5.468366  -0.336866   0.990580   2.443110  -1.721580  -0.082074  -1.396057   0.962702   0.360991   1.172579   0.115796  11.883070   5.199858   4.609949  30.580640   0.125756   7.837051  -0.026821   2.778245   0.089688  -2.025017   1.126875  -1.121775 -14.403667   4.387758  -2.708445 -28.705672   0.103828  -6.637715   0.021976   2.928726  -1.415085   2.907471   1.796203   1.071328  -2.652238   6.720638   0.010054  -0.003685  -4.284905  -1.071284   0.392505  -0.603102  -0.000959  -0.001755   4.182695   2.184216   5.113202   8.077564  -0.008132   0.006845  -7.422211   3.027678   0.610149   1.417383  -0.005659   0.003349
 -2.377619   0.918536   3.975252  -5.390311   0.470809  -0.784813   5.741854  -0.262277   1.000958   2.605601  -1.777733  -0.153433  -1.515506   0.929759   0.322039   1.245708   0.347606  12.656968   5.469678   5.110686  33.139035   0.119558   8.452478  -0.025464   2.969895   0.271236  -1.189209   1.239881  -1.236356 -15.205006   4.538738  -2.938683 -30.969296   0.096435  -7.116185   0.020490   3.141831  -1.687501   2.193292   1.585799   0.979615  -2.717714   7.516634   0.007915  -0.005244  -4.519254  -1.147914   0.526000  -0.483879  -0.000887  -0.001811   4.209700   2.424998   5.106056   8.525724  -0.006575   0.005791  -7.631660   3.309497   0.589291   1.194726  -0.004515   0.001990
 -2.378050   0.918185   3.975459  -5.556941   0.322782  -0.749083   5.975400  -0.201963   1.031767   2.733440  -1.836968  -0.204616  -1.633379   0.898288   0.287067   1.317047   0.550408  13.307075   5.707265   5.575549  35.482277   0.111677   9.023807  -0.023784   3.149983   0.440798  -0.437798   1.346843  -1.334006 -15.877728   4.676065  -3.147967 -33.035586   0.088152  -7.559912   0.018770   3.341915  -1.936643   1.564405   1.396554   0.902785  -2.762396   8.215875   0.006141  -0.005764  -4.759134  -1.215287   0.644157  -0.396291  -0.000799  -0.001688   4.222006   2.655845   5.118487   8.909147  -0.005344   0.005020  -7.830841   3.578768   0.582615   1.089035  -0.003581   0.001244
 -2.378668   0.917917   3.975615  -5.640205   0.276236  -0.725126   6.163600  -0.166449   0.978354   2.828428  -1.863877  -0.140175  -1.746002   0.780380   0.285425   1.386782   0.680243  13.573615   5.941505   6.030560  37.312537   0.101536   9.622028  -0.022705   3.298043   0.680919   0.955912   1.496946  -1.448195 -16.093207   4.687727  -3.396355 -34.807803   0.080606  -8.115535   0.017405   3.519916  -2.143351   0.382100   1.245892   0.824682  -2.768286   8.685386   0.004724  -0.005202  -4.893222  -1.289092   0.709563  -0.261527  -0.000744  -0.001598   4.149659   2.817370   5.151599   9.252317  -0.004341   0.004454  -8.044050   3.721098   0.691980   1.155930  -0.002952   0.001161
 -2.379422   0.917531   3.975745  -5.668881   0.228995  -0.625444   6.328895  -0.116262   0.846683   2.888132  -1.879329  -0.103597  -1.849279   0.669319   0.287912   1.432063   0.806751  13.559140   6.145152   6.452579  38.837343   0.089634  10.183659  -0.021459   3.438784   0.936412   2.094973   1.619241  -1.560190 -16.020002   4.686505  -3.624404 -36.274212   0.071418  -8.641321   0.015854   3.688481  -2.388333  -0.559596   1.110312   0.764439  -2.846239   8.980408   0.003657  -0.004466  -5.109636  -1.354157   0.754309  -0.132094  -0.000683  -0.001477   4.038588   2.960308   5.111371   9.559909  -0.003546   0.003914  -8.233802   3.843217   0.793181   1.228934  -0.002454   0.001087
